P2
#Andre_Neves_Medeiros
64 64
255
1 8 34 29 55 66 67 71 61 38 90 2 49 10 26 1 16 21 39 23 50 61 87 34 77 1 2 12 12 24 25 61 63 69 63 59 9 8 5 0 5 11 2 20 17 5 21 63 58 45 56 68 125 23 5 2 23 12 101 61 67 69 62 18 1 41 18 47 30 1 0 16 12 13 35 81 82 58 122 15 3 5 11 14 20 75 62 67 68 65 7 18 11 0 5 8 2 10 25 17 4 11 23 5 22 16 10 0 1 1 114 119 124 124 127 127 127 127 127 127 127 127 127 127 127 127 127 127 127 127 127 127 127 127 127 127 125 113 119 122 124 127 127 127 127 127 127 127 127 127 127 127 127 127 127 127 127 127 127 127 127 127 127 126 111 117 122 124 126 127 127 127 127 127 127 127 127 127 127 127 127 127 127 127 127 127 127 127 127 127 127 108 116 121 124 125 127 127 127 127 127 127 127 127 127 127 127 127 127 127 127 127 127 127 127 127 127 127 125 115 120 124 125 127 127 127 127 127 127 127 127 127 127 127 127 127 127 127 127 127 127 127 127 127 127 126 113 118 123 124 126 127 127 127 127 127 127 127 127 127 127 127 127 127 127 127 127 127 127 127 127 127 127 111 118 121 124 126 127 127 127 127 127 127 127 127 127 127 127 127 127 127 127 127 127 127 127 127 127 127 108 115 121 124 125 126 127 127 127 127 127 127 127 127 127 127 127 127 127 127 127 127 127 127 127 127 127 126 113 118 122 124 126 127 127 127 127 127 127 127 127 127 127 127 127 127 127 127 127 127 127 127 127 127 127 111 118 122 124 125 127 127 127 127 127 127 127 127 127 127 127 127 127 127 127 127 127 127 127 127 127 127 108 116 121 123 125 127 127 127 127 127 127 127 127 127 127 127 127 127 127 127 127 127 127 127 127 127 127 126 115 120 123 125 126 127 127 127 127 127 127 127 127 127 127 127 127 127 127 127 127 127 127 127 127 127 126 113 118 122 124 126 127 127 127 127 127 127 127 127 127 127 127 127 127 127 127 127 127 127 127 127 127 127 110 117 121 124 126 127 127 127 127 127 127 127 127 127 127 127 127 127 127 127 127 127 127 127 127 127 127 107 115 120 123 125 126 127 127 127 127 127 127 127 127 127 127 127 127 127 127 127 127 127 127 127 127 127 126 113 119 123 125 126 127 127 127 127 127 127 127 127 127 127 127 127 127 127 127 127 127 127 127 127 127 127 111 117 122 124 126 127 127 127 127 127 127 127 127 127 127 127 127 127 127 127 127 127 127 127 127 127 127 109 117 121 124 126 127 127 127 127 127 127 127 127 127 127 127 127 127 127 127 127 127 127 127 127 127 127 108 115 120 123 125 127 127 127 127 127 127 127 127 127 127 127 127 127 127 127 127 127 127 127 127 127 127 126 114 119 123 124 126 127 127 127 127 127 127 127 127 127 127 127 127 127 127 127 127 127 127 127 127 127 127 111 117 122 123 125 127 127 127 127 127 127 127 127 127 127 127 127 127 127 127 127 127 127 127 127 127 127 109 116 121 124 125 127 127 127 127 127 127 127 127 127 127 127 127 127 127 127 127 127 127 127 127 127 127 127 115 119 123 124 126 127 127 127 127 127 127 127 127 127 127 127 127 127 127 127 127 127 127 127 127 127 127 113 118 123 124 126 127 127 127 127 127 127 127 127 127 127 127 127 127 127 127 127 127 127 127 127 127 127 110 116 122 124 125 127 127 127 127 127 127 127 127 127 127 127 127 127 127 127 127 127 127 127 127 127 127 108 115 120 123 125 127 127 127 127 127 127 127 127 127 127 127 127 127 127 127 127 127 127 127 127 127 127 127 112 118 123 124 126 127 127 127 127 127 127 127 127 127 127 127 127 127 127 127 127 127 127 127 127 127 127 110 116 122 124 126 126 127 127 127 127 127 127 127 127 127 127 127 127 127 127 127 127 127 127 127 127 127 109 115 120 123 125 126 127 127 127 127 127 127 127 127 127 127 127 127 127 127 127 127 127 127 127 127 127 106 113 118 122 124 126 127 127 127 127 127 127 127 127 127 127 127 127 127 127 127 127 127 127 127 127 127 127 111 116 122 124 126 126 127 127 127 127 127 127 127 127 127 127 127 127 127 127 127 127 127 127 127 127 127 110 118 121 124 125 126 127 127 127 127 127 127 127 127 127 127 127 127 127 127 127 127 127 127 127 127 127 107 114 119 123 125 126 127 127 127 127 127 127 127 127 127 127 127 127 127 127 127 127 127 127 127 127 127 127 112 117 122 124 126 127 127 127 127 127 127 127 127 127 127 127 127 127 127 127 127 127 127 127 127 127 127 110 115 121 124 126 126 127 127 127 127 127 127 127 127 127 127 127 127 127 127 127 127 127 127 127 127 127 109 115 120 123 125 126 127 127 127 127 127 127 127 127 127 127 127 127 127 127 127 127 127 127 127 127 127 107 113 119 122 124 126 126 127 127 127 127 127 127 127 127 127 127 127 127 127 127 127 127 127 127 127 127 127 111 116 121 124 126 126 127 127 127 127 127 127 127 127 127 127 127 127 127 127 127 127 127 127 127 127 127 109 114 119 123 125 126 127 127 127 127 127 127 127 127 127 127 127 127 127 127 127 127 127 127 127 127 127 106 113 118 122 124 126 127 127 127 127 127 127 127 127 127 127 127 127 127 127 127 127 127 127 127 127 127 104 111 116 121 124 125 126 127 127 127 127 127 127 127 127 127 127 127 127 127 127 127 127 127 127 127 127 127 110 115 120 123 125 126 127 127 127 127 127 127 127 127 127 127 127 127 127 127 127 127 127 127 127 127 127 108 114 119 123 125 126 126 127 127 127 127 127 127 127 127 127 127 127 127 127 127 127 127 127 127 127 127 107 113 117 121 124 125 126 127 127 127 127 127 127 127 127 127 127 127 127 127 127 127 127 127 127 127 127 127 109 113 120 123 125 126 126 127 127 127 127 127 127 127 127 127 127 127 127 127 127 127 127 127 127 127 127 106 115 118 123 125 126 126 127 127 127 127 127 127 127 127 127 127 127 127 127 127 127 127 127 127 127 127 106 112 118 121 124 125 126 127 127 127 127 127 127 127 127 127 127 127 127 127 127 127 127 127 127 127 127 104 109 116 120 124 125 126 126 127 127 127 127 127 127 127 127 127 127 127 127 127 127 127 127 127 127 127 127 108 114 118 123 125 126 126 127 127 127 127 127 127 127 127 127 127 127 127 127 127 127 127 127 127 127 127 106 115 118 122 124 126 126 127 127 127 127 127 127 127 127 127 127 127 127 127 127 127 127 127 127 127 127 104 111 116 121 123 125 126 126 127 127 127 127 127 127 127 127 127 127 127 127 127 127 127 127 127 127 127 102 109 114 119 122 125 126 126 127 127 127 127 127 127 127 127 127 127 54 127 127 127 127 127 127 127 127 127 107 113 117 121 124 126 126 127 127 127 127 127 127 127 127 127 127 127 127 127 127 127 127 127 127 127 127 104 111 117 121 123 125 126 126 126 127 127 127 127 127 127 127 127 125 127 127 127 127 127 127 127 127 127 102 109 115 119 123 124 125 126 126 127 127 127 127 127 127 127 127 127 125 127 127 127 127 127 127 127 127 127 106 113 118 122 125 125 126 126 127 127 127 127 127 127 127 127 127 117 127 127 127 127 127 127 127 127 127 104 112 117 121 124 125 126 126 126 127 127 127 127 127 127 127 127 126 127 127 127 127 127 127 127 127 127 103 111 115 120 123 124 125 126 126 127 127 127 127 127 127 127 127 127 127 127 127 127 127 127 127 127 127 101 106 114 118 122 123 125 126 126 127 127 127 127 127 127 127 127 127 89 127 127 127 127 127 127 127 127 127 105 112 117 121 123 125 125 126 127 127 127 127 127 127 127 127 127 32 127 127 127 127 127 127 127 127 127 103 110 115 119 123 125 125 126 126 127 127 127 127 127 127 127 127 126 127 127 127 127 127 127 127 127 127 102 107 114 117 121 123 125 126 126 127 127 127 127 127 127 127 127 127 124 127 127 127 127 127 127 127 127 101 105 113 117 121 123 124 125 126 126 127 127 127 127 127 127 127 127 43 127 127 127 127 127 127 127 127 127 102 111 116 120 122 123 125 126 126 126 127 127 127 127 127 127 127 57 127 127 127 127 127 127 127 127 127 102 108 113 118 122 122 124 125 126 126 127 127 127 127 127 127 127 125 126 127 127 127 127 127 127 127 127 100 105 112 117 121 123 124 125 126 126 127 126 127 127 127 127 127 127 127 127 127 127 127 127 127 127 127 127 104 111 116 120 122 123 124 126 126 126 126 127 127 127 127 127 127 108 127 127 127 127 127 127 127 127 127 103 109 114 117 121 122 124 126 126 126 126 127 127 127 127 127 127 55 127 127 127 127 127 127 127 127 127 101 105 113 117 121 120 124 124 125 126 126 126 127 127 127 127 127 127 127 127 127 127 127 127 127 127 127 99 104 113 116 119 116 123 124 125 126 126 127 127 127 127 127 127 127 98 127 127 127 127 127 127 127 127 127 102 110 116 118 121 122 124 125 125 126 126 127 127 127 127 127 127 92 127 127 127 127 127 127 127 127 127 100 108 114 117 120 121 123 124 125 125 126 126 127 127 127 127 127 84 127 127 127 127 127 127 127 127 127 100 105 112 117 119 125 123 124 124 125 126 126 127 127 127 127 127 127 126 127 127 127 127 127 127 127 127 98 103 110 115 118 121 122 123 124 125 126 126 127 127 127 127 127 127 126 127 127 127 127 127 127 127 127 127 102 109 114 118 120 121 123 125 125 125 126 126 127 127 127 127 127 69 127 127 127 127 127 127 127 127 127 101 105 113 116 120 120 123 123 125 125 126 126 126 127 127 127 127 75 122 127 127 127 127 127 127 127 127 104 103 110 109 116 106 116 123 121 120 122 125 112 127 126 125 127 127 121 126 126 126 126 127 127 127 127 127 88 99 123 117 111 103 104 110 126 114 106 116 123 127 126 127 127 55 127 127 127 126 127 127 127 127 127 77 89 89 76 96 112 106 107 103 105 108 111 115 116 123 123 124 55 127 127 126 127 127 127 127 127 127 76 80 87 109 98 103 125 121 104 110 101 107 105 112 111 112 121 126 122 127 126 126 126 127 127 127 127 64 64 79 103 93 56 60 72 63 108 100 100 105 111 100 107 109 117 127 125 127 127 126 127 127 127 127 127 64 69 113 64 43 60 74 60 71 83 101 92 94 101 95 102 114 55 117 122 127 127 127 127 127 127 127 62 42 71 112 57 65 57 79 72 102 95 90 89 90 87 99 102 41 114 116 123 126 127 127 127 127 127 67 61 63 57 53 60 55 53 61 107 89 89 85 91 87 104 79 105 125 112 113 121 124 127 127 127 127 56 54 43 122 57 60 71 53 71 60 62 101 81 92 95 85 84 87 119 101 110 109 123 123 123 125 126 127 61 58 59 62 57 50 64 51 55 57 73 60 78 84 83 82 86 82 94 102 112 115 117 121 121 125 126 50 45 52 64 60 59 60 45 65 61 98 100 84 92 70 94 77 65 90 102 99 104 116 116 121 123 122 53 27 54 54 60 52 58 47 63 69 55 64 73 53 68 75 67 71 120 89 82 99 108 112 121 117 121 121 42 54 53 61 56 52 57 60 64 65 116 50 70 61 83 73 60 115 85 91 99 97 107 107 116 114 114 45 40 56 44 53 60 68 59 66 42 45 63 53 65 81 72 71 66 78 55 88 96 91 103 100 116 114 44 33 51 40 50 52 43 40 58 40 48 57 66 61 60 68 68 68 127 73 96 80 97 106 112 110 107 32 46 49 50 52 75 45 57 39 37 36 53 49 51 71 105 80 56 125 84 85 82 89 90 98 102 112 113 30 35 57 46 45 52 38 38 65 38 52 46 55 60 58 43 64 68 93 74 78 70 87 86 100 107 113 34 41 51 40 40 50 37 48 50 39 43 56 65 53 60 53 87 72 104 59 89 73 73 75 104 115 100 30 47 43 44 45 45 29 56 61 47 33 39 68 65 59 46 116 39 126 55 69 72 78 84 97 112 83 27 36 30 48 46 47 52 48 47 38 56 37 75 58 70 59 112 120 127 97 68 64 71 74 84 89 90 89 42 34 53 42 35 46 31 49 42 31 68 72 49 74 55 66 68 69 75 66 65 53 74 73 66 74 114 31 27 46 36 32 42 34 46 49 33 66 67 100 71 52 47 31 70 52 51 74 66 63 73 86 68 82 29 37 63 44 46 44 56 60 53 55 51 66 76 51 52 54 34 61 126 45 59 61 69 81 72 78 88 71 29 54 70 26 69 57 41 56 53 75 31 53 33 94 47 73 46 127 47 43 56 67 70 74 78 71 74 22 35 52 63 69 69 54 84 41 33 26 37 58 84 28 83 41 67 45 34 39 60 59 73 75 57 68 29 51 42 71 30 64 58 63 37 104 37 55 39 96 49 50 38 80 84 54 58 64 68 53 74 73 71 16 29 22 67 42 27 52 64 86 81 10 92 42 97 102 29 50 62 127 48 48 46 58 57 70 71 66 62 41 41 35 33 42 70 60 83 85 76 99 51 34 112 40 43 44 59 68 49 126 55 59 54 60 50 62 18 50 35 55 48 63 55 60 74 61 78 40 38 70 88 61 25 69 87 27 76 104 55 61 61 61 54 30 45 54 91 45 58 63 38 71 124 105 124 7 89 101 22 13 19 122 26 79 65 92 63 55 44 55 28 34 44 61 46 34 61 52 67 124 79 112 52 33 64 31 122 49 124 63 55 72 102 71 59 52 76 59 39 46 31 64 38 45 31 76 30 91 122 74 67 35 81 70 28 66 36 44 19 125 85 53 84 71 75 29 41 48 89 52 76 66 38 79 51 52 59 49 31 14 79 65 73 42 41 41 107 68 44 79 95 97 33 38 55 78 62 50 51 35 127 70 40 64 65 31 39 10 72 15 126 28 50 87 93 61 59 66 74 51 44 92 36 47 10 39 61 119 126 59 17 85 122 39 122 39 37 127 53 30 45 56 43 50 59 71 104 47 49 55 20 52 32 77 47 36 31 60 108 36 26 17 62 66 65 49 30 58 89 50 54 85 110 123 45 33 38 69 30 56 54 41 61 33 37 24 57 21 39 5 86 63 21 27 35 52 76 70 41 122 86 31 19 55 47 13 32 41 36 2 20 74 27 89 69 9 8 103 34 123 88 48 44 72 124 78 37 68 59 25 33 28 83 30 41 43 57 11 26 60 17 35 28 18 37 22 119 125 30 58 64 46 41 42 47 52 40 56 40 76 41 20 21 48 30 40 53 20 16 37 26 48 11 64 99 71 46 28 44 35 36 35 78 24 41 29 80 9 46 51 45 22 44 40 34 13 31 21 11 41 62 126 71 36 51 39 29 20 27 53 18 38 41 94 81 30 66 21 23 36 86 23 23 41 10 10 25 51 124 86 51 55 53 51 31 29 67 49 24 3 34 89 109 37 54 43 15 67 42 23 34 12 20 19 19 78 47 109 127 121 64 91 46 42 52 28 36 64 93 3 56 39 41 56 60 9 95 20 46 19 8 32 59 101 85 77 41 98 66 38 45 126 10 17 28 65 56 80 53 50 41 72 77 98 12 50 61 97 33 48 78 39 67 87 22 80 57 22 51 57 14 42 49 65 64 48 66 35 69 74 101 78 31 125 19 30 21 9 61 124 55 76 25 62 62 12 47 33 55 90 73 66 64 51 33 94 55 77 72 32 58 85 61 101 61 55 71 107 90 108 50 126 33 53 20 44 62 75 74 65 28 20 66 58 69 76 85 37 28 16 24 58 59 65 86 96 74 51 88 18 60 17 47 74 64 65 46 16 44 71 76 68 73 75 28 65 65 9 79 10 63 95 61 56 82 38 46 54 103 29 57 64 70 68 31 104 76 74 63 58 80 33 41 32 32 75 46 64 78 111 6 40 40 16 43 26 12 29 63 63 72 79 95 85 75 74 57 55 72 38 41 29 81 57 31 52 127 72 67 50 53 74 45 24 75 66 67 55 76 38 75 75 79 61 40 83 35 28 59 76 78 52 65 125 111 56 43 63 30 37 17 119 39 60 71 69 62 69 81 78 100 24 54 86 12 30 45 75 51 36 71 60 76 52 47 37 31 21 51 42 63 63 64 61 68 67 47 120 100 32 126 40 25 30 77 32 59 58 126 71 51 65 78 9 60 65 91 68 60 122 58 79 40 54 122 100 32 76 23 45 29 50 38 60 48 88 78 80 58 53 36 30 50 98 56 55 87 50 49 41 37 16 33 124 31 78 9 26 39 77 45 31 70 90 73 59 51 17 11 9 86 40 66 98 73 44 71 81 9 109 48 31 122 16 29 32 72 31 70 71 77 71 38 74 77 29 11 81 30 72 127 102 84 77 80 98 67 104 29 125 25 20 51 22 33 61 118 62 74 68 54 51 34 30 99 19 79 108 63 71 76 77 109 64 69 58 126 29 37 67 50 93 39 66 65 75 84 45 58 42 17 37 95 35 73 69 81 86 95 76 74 75 121 52 63 65 50 73 41 46 50 74 72 98 68 34 59 3 34 82 54 70 78 60 34 75 84 20 81 92 39 64 78 41 42 31 49 40 45 69 96 28 45 31 13 37 63 58 75 65 64 56 87 89 96 68 65 47 73 99 30 37 19 24 32 84 88 89 67 23 61 12 20 66 63 75 60 68 105 57 94 122 56 85 58 21 55 52 62 2 19 46 40 31 91 62 37 61 14 1 63 80 71 69 63 73 44 60 72 39 80 41 45 54 35 29 25 34 19 63 42 114 103 19 3 100 30 11 71 95 77 58 91 71 35 120 78 63 18 55 10 65 63 35 10 28 41 42 119 74 33 44 29 17 14 71 58 96 110 97 66 55 119 113 63 86 75 62 70 47 13 8 14 78 70 111 118 28 15 37 13 19 70 56 71 79 117 115 55 125 31 31 124 90 44 36 60 37 37 33 11 35 36 100 48 25 41 10 34 2 60 85 74 67 22 53 37 124 41 119 73 42 74 47 75 47 22 11 48 43 95 62 16 45 10 31 13 63 39 99 59 106 124 39 39 108 97 17 26 56 69 46 26 13 19 47 49 45 59 94 37 41 31 36 66 56 75 80 84 115 74 76 63 14 57 69 56 64 63 5 51 54 12 46 60 51 99 42 29 39 35 71 69 86 69 94 